<svg width="508" height="595" viewBox="0 0 508 595" fill="none" xmlns="http://www.w3.org/2000/svg">
<circle cx="253.659" cy="260.01" r="249.5" transform="rotate(179.238 253.659 260.01)" fill="#0C2554" stroke="#0C2554"/>
<path d="M271.309 561.246C265.787 572.875 249.317 573.094 243.488 561.616L47.5211 175.768C42.3249 165.537 49.6611 153.402 61.1351 153.25L442.74 148.176C454.214 148.023 461.87 159.958 456.948 170.324L271.309 561.246Z" fill="#0C2554" stroke="#0C2554"/>
<path d="M259.204 351.874C257.849 355.09 253.313 355.151 251.873 351.972L224.969 292.556C224.553 291.638 223.806 290.91 222.877 290.519L162.767 265.204C159.551 263.849 159.49 259.313 162.67 257.873L222.086 230.969C223.003 230.553 223.731 229.806 224.122 228.877L249.438 168.767C250.792 165.551 255.328 165.49 256.768 168.67L283.673 228.085C284.088 229.003 284.835 229.731 285.764 230.122L345.874 255.438C349.09 256.792 349.151 261.328 345.972 262.768L286.556 289.673C285.638 290.088 284.91 290.835 284.519 291.764L259.204 351.874Z" fill="#D0A300"/>
</svg>
